<?xml version="1.0" standalone="no"?>
<!DOCTYPE svg PUBLIC "-//W3C//DTD SVG 20010904//EN"
 "http://www.w3.org/TR/2001/REC-SVG-20010904/DTD/svg10.dtd">
<svg version="1.0" xmlns="http://www.w3.org/2000/svg"
 width="512.000000pt" height="512.000000pt" viewBox="0 0 512.000000 512.000000"
 preserveAspectRatio="xMidYMid meet">

<g transform="translate(0.000000,512.000000) scale(0.100000,-0.100000)"
fill="#000000" stroke="none">
<path d="M2463 4592 c-251 -90 -272 -432 -35 -549 81 -40 183 -40 264 0 107
53 163 144 163 267 0 85 -21 142 -74 203 -72 81 -213 117 -318 79z m146 -196
c67 -35 65 -143 -4 -174 -51 -23 -107 -7 -131 39 -47 91 44 182 135 135z"/>
<path d="M3211 4196 c-87 -48 -50 -186 49 -186 51 0 100 49 100 99 0 75 -83
124 -149 87z"/>
<path d="M1011 3996 c-29 -16 -50 -52 -51 -86 0 -14 345 -671 813 -1548 845
-1586 826 -1552 887 -1552 61 0 42 -34 888 1552 446 838 812 1533 812 1545 0
54 -48 103 -100 103 -11 0 -376 -178 -810 -395 l-790 -395 -790 395 c-434 217
-800 395 -812 395 -13 -1 -34 -7 -47 -14z m1649 -986 c11 0 322 151 691 336
369 184 669 331 668 326 -10 -27 -1355 -2542 -1359 -2542 -4 0 -1349 2515
-1359 2542 -1 5 299 -142 668 -326 369 -185 680 -336 691 -336z"/>
<path d="M4411 2796 c-87 -48 -50 -186 49 -186 51 0 100 49 100 99 0 75 -83
124 -149 87z"/>
<path d="M1211 2396 c-87 -48 -50 -186 49 -186 51 0 100 49 100 99 0 75 -83
124 -149 87z"/>
<path d="M4113 1996 c-103 -34 -176 -98 -222 -196 -22 -46 -26 -69 -26 -140 0
-76 4 -93 33 -152 38 -77 92 -130 171 -167 47 -22 70 -26 141 -26 71 0 94 4
141 26 79 37 133 90 171 167 29 59 33 76 33 152 0 71 -4 94 -26 141 -58 124
-169 199 -302 205 -43 3 -89 -2 -114 -10z m167 -206 c45 -23 80 -80 80 -131 0
-74 -76 -149 -151 -149 -46 0 -108 39 -130 82 -37 72 -14 151 57 194 48 29 92
30 144 4z"/>
<path d="M866 1500 c-63 -16 -153 -70 -197 -117 -22 -24 -55 -74 -72 -111 -29
-61 -32 -76 -32 -163 0 -90 2 -99 37 -171 45 -91 103 -147 196 -191 61 -29 76
-32 162 -32 86 0 101 3 162 32 93 44 151 100 196 191 35 72 37 81 37 172 0 91
-2 100 -37 172 -68 136 -188 217 -336 224 -42 2 -94 -1 -116 -6z m204 -224
c59 -39 85 -89 85 -166 0 -78 -26 -127 -88 -168 -56 -37 -153 -39 -210 -3 -76
47 -111 140 -88 229 14 51 75 117 123 131 53 16 135 6 178 -23z"/>
<path d="M3511 996 c-87 -48 -50 -186 49 -186 51 0 100 49 100 99 0 75 -83
124 -149 87z"/>
<path d="M1911 696 c-87 -48 -50 -186 49 -186 51 0 100 49 100 99 0 75 -83
124 -149 87z"/>
</g>
</svg>
